Simulation
nRows=24
nColumns=15
endheader
time  TH_x TH_y TH_z SC_y  SC_z  SC_x  AC_y  AC_z  AC_x  GH_y  GH_z  GH_yy  EL_x  PS_y
0.0  0.000000  0.000000  0.000000  -29.21964886725314  -0.227008554743445  2.730910625158681  50.08557895881268  3.9822732403239316  -6.4644848538687745  47.45989872036807  -1.614469226021014  -17.791785387436388  22.64236410907775  0.000000
0.031  0.000000  0.000000  0.000000  -28.898812198260757  -0.18615704770916572  2.844580607548862  49.87592268867517  3.8452369628662795  -6.636450944982386  47.32383128002593  -1.6196463222863275  -17.86776109788408  22.755886009320097  0.000000
0.062  0.000000  0.000000  0.000000  -28.797064661440256  -0.18694231261372526  2.9460714367302336  49.73068862969015  3.7644135583127225  -6.854810107192402  47.3165332566757  -1.6423779910749874  -17.753050859772973  22.829190046210034  0.000000
0.093  0.000000  0.000000  0.000000  -28.91211794819425  -0.24970071046368508  3.0923604819714465  49.66286925720203  3.6681028442766523  -7.0421291041398835  47.29302769254741  -1.5950331776973807  -17.578037749128505  22.74837179500524  0.000000
0.124  0.000000  0.000000  0.000000  -28.947874817465326  -0.33316388605893227  3.229783315853822  49.64420306515612  3.540164657275497  -7.219132246076629  47.14277121065261  -1.4647951266253247  -17.44153555139039  22.644877220217758  0.000000
0.155  0.000000  0.000000  0.000000  -28.993204546385  -0.41202992748860046  3.361920592209812  49.64132438191691  3.40682547559477  -7.3716059817633806  46.92228358354904  -1.2159423832842473  -17.28395788887801  22.532935984078318  0.000000
0.186  0.000000  0.000000  0.000000  -29.01592244865416  -0.4783755826471494  3.485931922142396  49.62068805201533  3.2695970983335445  -7.514085819371522  46.57974058257883  -0.8360248552491211  -17.15150341862159  22.39763834316104  0.000000
0.217  0.000000  0.000000  0.000000  -29.067785365402877  -0.5424562953295105  3.6129465779030583  49.59575353788838  3.1671540228875905  -7.6765428196406065  46.148182309962195  -0.30153764869206273  -16.98887881514353  22.216088302127808  0.000000
0.248  0.000000  0.000000  0.000000  -29.156513697809615  -0.6120450013986606  3.6776566974848275  49.53404505594403  3.127124180385929  -7.831210768581629  45.58137065703144  0.4172523488316836  -16.76800232329812  21.984503643700325  0.000000
0.279  0.000000  0.000000  0.000000  -29.252170152156374  -0.6715686295622356  3.6877677499708987  49.461653482229295  3.082158422353903  -7.956638854809461  44.814859613640834  1.3171359517441537  -16.464345632664255  21.728223181954323  0.000000
0.31  0.000000  0.000000  0.000000  -29.312243801991364  -0.7012945399162587  3.7355312942354644  49.37772765136147  2.970862898782001  -8.074472822426289  43.830518409837055  2.3124700310873676  -16.10062746497914  21.516551840562293  0.000000
0.34099999999999997  0.000000  0.000000  0.000000  -29.350096615377723  -0.7071548976470066  3.8337735139546827  49.31425622271133  2.844575302236409  -8.20029200989662  42.7006879843079  3.351572894139692  -15.695952922284171  21.367276629576946  0.000000
0.372  0.000000  0.000000  0.000000  -29.400135322831865  -0.7123421987904848  3.943372396230587  49.27739681034078  2.772915905381998  -8.310489683349575  41.49976311323832  4.431982620077718  -15.269116576521496  21.25396740776282  0.000000
0.403  0.000000  0.000000  0.000000  -29.487737310179988  -0.7335766765971815  4.015487591329159  49.31203724968755  2.7696574914570045  -8.352539597055332  40.230640261448556  5.584003259134007  -14.885238077312348  21.16534877234697  0.000000
0.434  0.000000  0.000000  0.000000  -29.616228610954867  -0.770077917305712  4.036084386958744  49.446420969883455  2.817854261853807  -8.28204938578482  38.893276746471365  6.8167488813277455  -14.59124660426047  21.125676974343342  0.000000
0.46499999999999997  0.000000  0.000000  0.000000  -29.76305124572068  -0.8140140046339637  4.017409441887957  49.67910087566328  2.896122280222509  -8.106079270386914  37.50690076732595  8.129152285994167  -14.39596451469966  21.153731887939824  0.000000
0.496  0.000000  0.000000  0.000000  -29.898853350416985  -0.8545036153541747  3.9634009105747507  49.971465746359954  3.0140228287858206  -7.858564705701752  36.11266718900446  9.51215187324483  -14.26535138057264  21.252309605644488  0.000000
0.527  0.000000  0.000000  0.000000  -29.99714942946466  -0.8726618568809056  3.8832860872089308  50.27489762468391  3.1761714552274514  -7.570683222507027  34.755319304291646  10.953448521410255  -14.153767033582858  21.38565824642574  0.000000
0.558  0.000000  0.000000  0.000000  -30.053538300916124  -0.8550901836863738  3.800156717653752  50.55816134770961  3.3722883957931815  -7.275864751558008  33.471700230356014  12.45019935287666  -14.02698351737841  21.511542843646264  0.000000
0.589  0.000000  0.000000  0.000000  -30.07672170279149  -0.7943642769962341  3.742815246735303  50.80289846582039  3.5854749915918043  -6.998293977749519  32.2849637522357  13.99784833303226  -13.880590154449285  21.60503941856793  0.000000
0.62  0.000000  0.000000  0.000000  -30.08408861376159  -0.6889950810030051  3.738278741630479  51.00839695045751  3.7977477316273562  -6.75538200922649  31.21033726761878  15.594841786322332  -13.73448804443163  21.66200582006457  0.000000
0.651  0.000000  0.000000  0.000000  -30.09112922674978  -0.5425736636302702  3.805051985197861  51.18162704642818  3.9975077896931475  -6.553331518692216  30.257960569914363  17.240943133173943  -13.618749787938135  21.68536841993234  0.000000
0.6819999999999999  0.000000  0.000000  0.000000  -30.10240876440412  -0.364141746414192  3.950201768702559  51.33681403679972  4.17683837268733  -6.392325707288964  29.421503862669766  18.942874702081088  -13.560830494465216  21.67617784230639  0.000000
0.713  0.000000  0.000000  0.000000  -30.10973127384845  -0.16662142213331177  4.170523739873158  51.48490348630215  4.333661333500513  -6.270526810879248  28.676670777628328  20.709348604499418  -13.568653753479671  21.637792244748823  0.000000
